<svg width="40" height="40" viewBox="0 0 40 40" fill="none" xmlns="http://www.w3.org/2000/svg">
<path fill-rule="evenodd" clip-rule="evenodd" d="M31.4774 20.0004C31.4774 26.3443 26.3443 31.4774 20.0004 31.4774C13.6566 31.4774 8.52344 26.3443 8.52344 20.0004C8.52344 13.6566 13.6566 8.52344 20.0004 8.52344C26.3443 8.52344 31.4774 13.6566 31.4774 20.0004ZM20.0004 10.3152C25.3757 10.3152 29.7341 14.6251 29.7341 20.0004C29.7341 25.3757 25.3757 29.7341 20.0004 29.7341C14.6251 29.7341 10.3152 25.3757 10.3152 20.0004C10.3152 14.6251 14.6251 10.3152 20.0004 10.3152Z" fill="#FE9013"/>
<path fill-rule="evenodd" clip-rule="evenodd" d="M20 0C31.0412 0 40 8.95884 40 20C40 31.0412 31.0412 40 20 40C8.95884 40 0 31.0412 0 20C0 8.95884 8.95884 0 20 0ZM20 1.79177C30.0726 1.79177 38.2567 9.92736 38.2567 20C38.2567 30.0726 30.0726 38.2567 20 38.2567C9.92736 38.2567 1.79177 30.0726 1.79177 20C1.79177 9.92736 9.92736 1.79177 20 1.79177Z" fill="#FE9013"/>
</svg>
